<svg xmlns="http://www.w3.org/2000/svg" version="1.1" xmlns:xlink="http://www.w3.org/1999/xlink" xmlns:svgjs="http://svgjs.dev/svgjs" width="100%" height="100%" viewBox="0 0 1000 600"><rect width="1000" height="600" x="0" y="0" fill="#f4a950"/><g><circle r="166.66666666666666" cx="341.08474222819007" cy="363.3069464843521" fill="#161b21" transform="matrix(0.7166689451388989,0,0,0.7166689451388988,0,39.62919144297179)"/><path d="M344.18136252525 438.30695817431234L344.18136252525 438.30695817431234L344.18136252525 422.3053786395365Q347.58910631506336 422.3053786395365 352.18215229263785 420.2607323656485Q356.7751982702124 418.2457186464546 361.0422861461526 414.51201675500687Q365.3093740220928 410.77831486355916 368.1837318274136 405.6518829014921Q371.0580896327345 400.52545093942507 371.0580896327345 394.12481912551476L371.0580896327345 394.12481912551476Q371.0580896327345 386.6574153426194 367.0280621943465 381.7680438181046Q362.9684022012645 376.8490397388958 356.65666805143627 373.85615171479884Q350.3745664563021 370.86326369070184 343.55907887667536 369.1742080731422Q336.71395874235463 367.45551990088853 330.8467129129369 366.29985026782134Q324.97946708351907 365.1145480800602 321.9865790594221 364.04777611107517L321.9865790594221 364.04777611107517Q314.756235714079 361.49937640738864 308.7704596658851 357.1137583126723Q302.7846836176912 352.72814021795597 299.28804216379575 345.7052247554711Q295.7617681552063 338.65267673829214 295.7617681552063 328.63687325171026L295.7617681552063 328.63687325171026Q295.7617681552063 317.5246652414493 300.02885603114646 309.84983357569575Q304.2959439070867 302.1750019099422 310.4891478381388 297.4930582682856Q316.65271921449687 292.78148207193493 323.0533510284072 290.55904046988275Q329.4539828423175 288.3069663131365 333.7210707182577 288.3069663131365L333.7210707182577 288.3069663131365L333.7210707182577 304.5159737307705Q331.5875267802876 304.7234016136287 327.972355107616 306.1161316842481Q324.3571834349445 307.50886175486744 320.830909426355 310.5017497789644Q317.3046354177655 313.4946378030613 314.8451333781611 318.0580512259419Q312.38563133855666 322.6510972035164 312.38563133855666 329.0517290174267L312.38563133855666 329.0517290174267Q312.38563133855666 335.2449329484788 315.70447746428795 339.30459294156077Q319.02332359001923 343.36425293464276 324.3571834349445 345.9126526383293Q329.69104327986975 348.46105234201576 336.18057275786214 350.3871683971277Q342.6997347905485 352.3132844522396 349.1892642685409 353.7949121869411Q355.70842630122735 355.30617247633654 360.8348582632944 357.23228853144843L360.8348582632944 357.23228853144843Q368.09483416333154 359.9881161179931 374.25840553968965 364.37373421270945Q380.45160947074174 368.72971975273174 384.3038415809655 375.7822677699107Q388.12644113649526 382.83481578708967 388.12644113649526 393.70996335979834L388.12644113649526 393.70996335979834Q388.12644113649526 405.2370271357757 382.1702976429954 415.3713608411337Q376.18452159480154 425.5056945464917 366.16871810821965 431.90632636040203Q356.1232820669438 438.30695817431234 344.18136252525 438.30695817431234ZM333.7210707182577 422.3053786395365L333.7210707182577 438.30695817431234Q324.77203920066086 438.30695817431234 317.5120633006237 434.6621539469467Q310.25208740058656 431.0469822742752 305.03675777443743 425.5056945464917Q299.8214281482883 419.93477426401415 296.91743778827345 414.1860586533725Q294.0430799829526 408.4373430427309 294.0430799829526 403.93319472923844L294.0430799829526 403.93319472923844L309.629803752012 398.39190700145497Q310.9040036038552 406.06673866720854 314.9636635969372 411.1931706292756Q319.02332359001923 416.31960259134263 324.12012299739223 418.98653251380523Q329.2465549594593 421.6534624362679 333.7210707182577 422.3053786395365L333.7210707182577 422.3053786395365ZM382.1702976429954 319.65820917941943L366.16871810821965 324.7846411414865Q364.8945182563764 317.96915356185974 361.0422861461526 313.5835354671434Q357.1900540359288 309.2275499271211 352.6266406130483 306.97547577037494Q348.0335946354738 304.7234016136287 344.18136252525 304.5159737307705L344.18136252525 304.5159737307705L344.18136252525 288.3069663131365Q352.9229661599886 288.3069663131365 359.76808629430934 291.7147101029499Q366.5835738739361 295.12245389276325 371.5025779531449 300.3674160736064Q376.39194947765975 305.58274569975555 379.05887940012235 310.8277078805987Q381.725809322585 316.04303750674785 382.1702976429954 319.65820917941943L382.1702976429954 319.65820917941943Z " fill="#f4a950" transform="matrix(0.7166689451388989,0,0,0.7166689451388988,0,39.62919144297179)"/><path d="M630.4702327364644 407.13843268763065L630.4702327364644 407.13843268763065L630.4702327364644 394.568600761623Q633.1471413873735 394.568600761623 636.7551486994682 392.96245557107756Q640.363156011563 391.37958784706177 643.7151111918317 388.44662706432666Q647.0670663721005 385.5136662815915 649.324980625476 381.48666457196316Q651.5828948788514 377.45966286233477 651.5828948788514 372.4317300919317L651.5828948788514 372.4317300919317Q651.5828948788514 366.56580852646147 648.4171594308198 362.7250265490702Q645.2281465162587 358.86096710514937 640.2700461454444 356.5099429856553Q635.3352232411601 354.1589188661613 629.9814059393419 352.8321032739716Q624.6043111709942 351.4820102152523 619.9953727981247 350.5741890205962Q615.3864344252552 349.6430903594104 613.0354103057612 348.8051015643432L613.0354103057612 348.8051015643432Q607.3557084725281 346.8032394427939 602.65366023354 343.3581743964066Q597.951611994552 339.9131093500193 595.204870944054 334.3963497824937Q592.4348524270265 328.8563127484385 592.4348524270265 320.9885290614189L592.4348524270265 320.9885290614189Q592.4348524270265 312.2594791128024 595.7868076072951 306.23061528162464Q599.1387627875638 300.2017514504469 604.0037532922595 296.5239117387632Q608.8454663304253 292.8227945605498 613.8733991008285 291.07698457082654Q618.9013318712314 289.3078971145736 622.2532870515001 289.3078971145736L622.2532870515001 289.3078971145736L622.2532870515001 302.0406713062888Q620.5773094613658 302.2036135719963 617.7374585447492 303.29765449888953Q614.8976076281327 304.3916954257828 612.1275891111052 306.7427195452768Q609.3575705940775 309.09374366477084 607.425540872117 312.678473510336Q605.4935111501566 316.2864808224308 605.4935111501566 321.3144135928339L605.4935111501566 321.3144135928339Q605.4935111501566 326.1794040975294 608.1005874014768 329.3684170120906Q610.7076636527968 332.5574299266518 614.8976076281327 334.5592920482012Q619.0875516034687 336.5611541697506 624.1853167734606 338.0741894941774Q629.3063594099822 339.5872248186043 634.4041245799742 340.7510981450865Q639.5251672164959 341.9382489380983 643.5521689261243 343.4512842625251L643.5521689261243 343.4512842625251Q649.2551482258871 345.616088649782 654.0968612640529 349.0611536961693Q658.9618517687484 352.48294127602696 661.9879224176021 358.0229783100822Q664.9907155999263 363.5630153441374 664.9907155999263 372.1058455605167L664.9907155999263 372.1058455605167Q664.9907155999263 381.1607800405481 660.3119448274679 389.12167359368635Q655.6098965884797 397.0825671468245 647.7421129014601 402.11049991722757Q639.8510517479109 407.13843268763065 630.4702327364644 407.13843268763065ZM622.2532870515001 394.568600761623L622.2532870515001 407.13843268763065Q615.2234921595477 407.13843268763065 609.520512859785 404.27530430448445Q603.8175335600222 401.4354533878679 599.7206994508049 397.0825671468245Q595.6238653415876 392.70640343925146 593.3426736216825 388.19057493250057Q591.084759368307 383.6747464257497 591.084759368307 380.13657151324384L591.084759368307 380.13657151324384L603.3287067628997 375.78368527220044Q604.3296378236744 381.81254910337816 607.5186507382357 385.83955081300655Q610.7076636527968 389.8665525226349 614.7113878958955 391.96152451030287Q618.7383896055239 394.05649649797084 622.2532870515001 394.568600761623L622.2532870515001 394.568600761623ZM660.3119448274679 313.9354567029368L647.7421129014601 317.9624584125652Q646.7411818406854 312.60864111074704 643.7151111918317 309.1635760643598Q640.6890405429781 305.74178848450214 637.104310697413 303.9727010282492Q633.4963033853181 302.2036135719963 630.4702327364644 302.0406713062888L630.4702327364644 302.0406713062888L630.4702327364644 289.3078971145736Q637.3370853627093 289.3078971145736 642.714180131057 291.98480576548263Q648.0679974328752 294.6617144163917 651.932056876796 298.7818259921387Q655.7728388541873 302.878660101356 657.8678108418552 306.9987716771029Q659.9627828295231 311.0956057863202 660.3119448274679 313.9354567029368L660.3119448274679 313.9354567029368ZM691.1545879792458 406.62632842397846L678.2355940552936 406.62632842397846L678.2355940552936 317.124469617498L691.1545879792458 317.124469617498L691.1545879792458 406.62632842397846ZM684.6136198844159 309.7455127276009L684.6136198844159 309.7455127276009Q681.5875492355622 309.7455127276009 679.2365251160682 307.4875984742254Q676.9087784631038 305.22968422085 676.9087784631038 302.2036135719963L676.9087784631038 302.2036135719963Q676.9087784631038 299.20082038967223 679.2365251160682 296.9429061362968Q681.5875492355622 294.6617144163917 684.6136198844159 294.6617144163917L684.6136198844159 294.6617144163917Q687.6164130667399 294.6617144163917 689.897604786645 296.9429061362968Q692.1555190400205 299.20082038967223 692.1555190400205 302.2036135719963L692.1555190400205 302.2036135719963Q692.1555190400205 305.22968422085 689.897604786645 307.4875984742254Q687.6164130667399 309.7455127276009 684.6136198844159 309.7455127276009ZM722.9981621917985 438.3069603708237L709.7532837364314 438.3069603708237L726.3501173720673 386.84048187378124L700.5354069906924 316.63564282037544L714.1061699774747 316.63564282037544L740.0838226245572 387.0267016060184L722.9981621917985 438.3069603708237ZM744.4367088656005 375.4578007407854L742.9236735411738 375.4578007407854L737.2439717079407 357.51087404643005L753.491643345632 316.63564282037544L767.0624063324143 316.63564282037544L744.4367088656005 375.4578007407854ZM800.419015869394 394.38238102938584L800.419015869394 406.46338615827096Q792.0391279187221 406.46338615827096 786.0102640875444 403.36748310982836Q779.9814002563668 400.24830259485606 776.6992774756869 395.40658955669016Q773.4404321615367 390.54159905199464 773.4404321615367 385.67660854729905L773.4404321615367 385.67660854729905L773.4404321615367 377.62260512804227Q773.4404321615367 375.10863874284075 773.9292589586593 372.3618976923428Q774.4413632223115 369.59187917531517 776.2802830781533 366.72875079216897Q778.1192029339951 363.88889987555245 781.983262377916 361.8870377540031L781.983262377916 361.8870377540031Q784.6601710288252 360.5369446952837 789.6182713996392 359.1170192369754Q794.5530943039238 357.6970937786672 800.2560736036866 356.25389085382926Q805.9590529034491 354.833965395521 811.1499279395597 353.1579878053866Q816.3408029756703 351.4820102152523 819.7858680220576 349.736200225529Q823.2076556019152 347.96711276927607 823.2076556019152 345.9652506477267L823.2076556019152 345.9652506477267L823.2076556019152 342.7762377331655Q823.2076556019152 338.0741894941774 820.9497413485398 334.8153441800273Q818.6918270951643 331.5332213993475 815.4097043144847 329.7874114096242Q812.1508590003344 328.0183239533713 808.4730192886508 328.0183239533713L808.4730192886508 328.0183239533713L808.4730192886508 316.2864808224308Q817.8538383000972 316.2864808224308 823.8827021312749 320.4065923981778Q829.9115659624528 324.5034265073951 832.8445267451879 330.6254002046914Q835.777487527923 336.7473739019877 835.777487527923 342.42707573522085L835.777487527923 342.42707573522085L835.777487527923 388.7026791961527Q835.777487527923 389.70361025692745 836.5456439234011 391.96152451030287Q837.2905228523497 394.2194387636783 840.3165935012036 394.2194387636783L840.3165935012036 394.2194387636783L840.3165935012036 406.46338615827096Q835.2886607308004 406.46338615827096 832.2625900819468 404.78740856813664Q829.2365194330931 403.11143097800226 827.0717150458362 400.5974645928007L827.0717150458362 400.5974645928007Q823.8827021312749 403.60025777512476 818.854769360872 405.0434606999627Q813.8268365904688 406.46338615827096 808.6359615543582 406.46338615827096L808.6359615543582 406.46338615827096L808.6359615543582 394.38238102938584Q812.4767435317495 394.38238102938584 815.7588663124292 393.12539783678506Q819.0177116265794 391.86841464418427 821.1126836142474 388.86562146186026Q823.2076556019152 385.83955081300655 823.2076556019152 380.64867577689597L823.2076556019152 380.64867577689597L823.2076556019152 360.8628292266987Q819.692758155939 362.7250265490702 814.4087732537099 364.21478440696745Q809.1247883514808 365.7278197313943 803.4450865182476 366.98480292399506Q797.7421072184849 368.24178611659585 793.2030012452043 369.4987693091966Q788.6871727384536 370.75575250179736 787.0111951483192 372.4317300919317L787.0111951483192 372.4317300919317Q785.0093330267697 373.94476541635856 785.0093330267697 377.80882486027946L785.0093330267697 377.80882486027946L785.0093330267697 382.65053789844535Q785.1722752924774 386.84048187378124 787.1741374140266 389.44755812510135Q789.1992770021058 392.05463437642146 792.6210645819632 393.21850770290365Q796.0661296283505 394.38238102938584 800.419015869394 394.38238102938584L800.419015869394 394.38238102938584ZM786.1732063532519 343.265064530288L786.1732063532519 343.265064530288L774.6043054880189 338.9121782892446Q774.6043054880189 332.3712101944147 778.4683649319398 327.2734450244227Q782.3091469093312 322.1524023879011 788.2681783409199 319.2194416051659Q794.2272097725087 316.2864808224308 800.5819581351014 316.2864808224308L800.5819581351014 316.2864808224308L800.5819581351014 328.3674859513159Q796.7411761577104 328.3674859513159 793.4590533770305 330.11329594103927Q790.2002080628803 331.8823833972922 788.1750684748014 335.2343385775609Q786.1732063532519 338.5862937578296 786.1732063532519 343.265064530288ZM888.24489708574 406.62632842397846L874.1620298353056 406.62632842397846L874.1620298353056 394.05649649797084L888.4078393514477 394.05649649797084Q891.9227367974239 394.05649649797084 895.2048595781035 392.21757664212896Q898.4637048922538 390.3786567862871 900.465567013803 387.445696003552Q902.4907066018822 384.51273522081686 902.4907066018822 381.64960683767066L902.4907066018822 381.64960683767066L902.4907066018822 341.4261446744461Q902.4907066018822 338.5862937578296 900.5586768799216 335.7231653746834Q898.6266471579612 332.8833144580669 895.5307441095187 330.9512847361064Q892.4348410610761 329.019255014146 888.5707816171551 329.019255014146L888.5707816171551 329.019255014146L874.1620298353056 329.019255014146L874.1620298353056 316.4494230881383L888.5707816171551 316.4494230881383Q894.4367031826254 316.4494230881383 899.3948035534396 318.8004472076324Q904.329626457724 321.1514713271264 907.8445239037002 324.8293110388101Q911.3594213496764 328.5304282170235 913.2914510716367 332.7203721923593Q915.2234807935973 336.9103161676952 915.2234807935973 340.7510981450865L915.2234807935973 340.7510981450865L915.2234807935973 381.9987688356153Q915.2234807935973 385.00156201793936 913.6406130695815 389.19150599327526Q912.034467879036 393.38144996861115 908.6825126987675 397.31534181212095Q905.3305575184987 401.2725111221604 900.2327923485067 403.94941977306945Q895.111749711985 406.62632842397846 888.24489708574 406.62632842397846L888.24489708574 406.62632842397846ZM866.1080264160488 406.62632842397846L852.8864254272111 406.62632842397846L852.8864254272111 288.30696605379893L866.1080264160488 288.30696605379893L866.1080264160488 406.62632842397846ZM955.1210584254069 394.2194387636783L955.1210584254069 406.78927068968596Q948.5800903305768 406.78927068968596 943.2961054283477 404.43824657019195Q938.0121205261186 402.11049991722757 934.3342808144349 398.15333060718814Q930.6331636362214 394.2194387636783 928.6313015146721 389.5406679912199Q926.6294393931229 384.83861975223186 926.6294393931229 380.13657151324384L926.6294393931229 380.13657151324384L926.6294393931229 343.4512842625251Q926.6294393931229 338.7492360235371 928.4683592489647 333.9773553849601Q930.3072791048065 329.2054747463831 933.9851188164902 325.2483054363437Q937.6862359947037 321.3144135928339 943.0400532965217 318.8935570737509Q948.4171480648694 316.4494230881383 955.1210584254069 316.4494230881383L955.1210584254069 316.4494230881383L955.1210584254069 329.019255014146Q950.0931256550037 329.019255014146 946.6480606086164 331.4633889997586Q943.2029955622291 333.8842455188415 941.3640757063873 337.5853626970549Q939.5251558505455 341.26320240873866 939.5251558505455 345.1272618526595L939.5251558505455 345.1272618526595L939.5251558505455 378.46059392310946Q939.5251558505455 381.81254910337816 941.5270179720948 385.5136662815915Q943.5521575601739 389.19150599327526 947.0670550061501 391.7054723784768Q950.5819524521263 394.2194387636783 955.1210584254069 394.2194387636783L955.1210584254069 394.2194387636783ZM962.6629575810115 406.78927068968596L962.6629575810115 406.78927068968596L962.6629575810115 394.2194387636783Q967.3417283534699 394.2194387636783 970.7867933998572 391.79858224459537Q974.2085809797148 389.35444825898276 976.0707783020863 385.7697184134176Q977.9096981579281 382.16171110132285 977.9096981579281 378.8097559210541L977.9096981579281 378.8097559210541L977.9096981579281 345.1272618526595Q977.9096981579281 341.4261446744461 976.0707783020863 337.7483049627624Q974.2085809797148 334.04718778454907 970.8566257994461 331.5332213993475Q967.5046706191773 329.019255014146 962.6629575810115 329.019255014146L962.6629575810115 329.019255014146L962.6629575810115 316.4494230881383Q969.5298102072562 316.4494230881383 974.6275753772483 318.8935570737509Q979.7486180137699 321.3144135928339 983.4264577254536 325.2483054363437Q987.1275749036671 329.2054747463831 988.8733848933904 333.9773553849601Q990.6424723496433 338.7492360235371 990.6424723496433 343.4512842625251L990.6424723496433 343.4512842625251L990.6424723496433 380.13657151324384Q990.6424723496433 384.83861975223186 988.7104426276827 389.5406679912199Q986.7784129057223 394.2194387636783 983.1005731940387 398.15333060718814Q979.4227334823548 402.11049991722757 974.3016908458334 404.43824657019195Q969.1806482093117 406.78927068968596 962.6629575810115 406.78927068968596ZM1002.7002000119988 406.62632842397846L1002.7002000119988 343.265064530288Q1002.7002000119988 338.5862937578296 1004.6322297339592 333.8144131192526Q1006.5642594559196 329.019255014146 1010.2420991676034 325.0155307710472Q1013.9432163458167 320.9885290614189 1019.2970336476347 318.6375049419248Q1024.6741284159825 316.2864808224308 1031.5409810422275 316.2864808224308L1031.5409810422275 316.2864808224308L1031.5409810422275 329.019255014146Q1027.3510370668914 329.019255014146 1023.7430297547968 331.11422700181396Q1020.135022442702 333.2091989894819 1017.8771081893266 336.6542640358692Q1015.6191939359511 340.0993290822564 1015.6191939359511 344.2892730575923L1015.6191939359511 344.2892730575923L1015.6191939359511 406.62632842397846L1002.7002000119988 406.62632842397846ZM1055.0046673041084 406.62632842397846L1055.0046673041084 344.2892730575923Q1055.0046673041084 341.1002601430311 1053.1657474482668 337.5853626970549Q1051.303550125895 334.04718778454907 1047.71882028033 331.5332213993475Q1044.1108129682352 329.019255014146 1039.0828801978319 329.019255014146L1039.0828801978319 329.019255014146L1039.0828801978319 316.2864808224308Q1045.7867905583694 316.2864808224308 1051.1406078601876 318.7306148080434Q1056.517702628535 321.1514713271264 1060.1955423402192 325.1784730367547Q1063.8733820519028 329.2054747463831 1065.8054117738634 333.9773553849601Q1067.7374414958235 338.7492360235371 1067.7374414958235 343.265064530288L1067.7374414958235 343.265064530288L1067.7374414958235 406.62632842397846L1055.0046673041084 406.62632842397846ZM1115.1769182832377 437.63191384146404L1078.6312958316971 437.63191384146404L1081.820308746258 425.57418617910855L1113.1517786951586 425.57418617910855Q1118.5288734635064 425.22502418116386 1122.1136033090716 423.13005219349594Q1125.7216106211663 421.035080205828 1127.4906980774194 418.1021194230929Q1129.2365080671425 415.16915864035775 1129.2365080671425 413.00435425310087L1129.2365080671425 413.00435425310087L1129.2365080671425 400.43452232709325Q1128.2355770063677 401.08629138992325 1126.2337148848187 402.52949431476117Q1124.2085752967396 403.94941977306945 1121.3687243801228 405.0434606999627Q1118.5288734635064 406.1142241603263 1114.6648140195857 406.1142241603263L1114.6648140195857 406.1142241603263L1114.6648140195857 394.38238102938584Q1118.5288734635064 394.38238102938584 1121.7877187776567 392.473628773955Q1125.0465640918064 390.54159905199464 1127.1415360794745 387.5155284031409Q1129.2365080671425 384.51273522081686 1129.2365080671425 381.64960683767066L1129.2365080671425 381.64960683767066L1129.2365080671425 340.9373178773236Q1129.2365080671425 337.0732584334027 1126.9087614141781 334.2334075167862Q1124.557737294684 331.37027913364 1121.2057821144153 329.7874114096242Q1117.8538269341466 328.1812662190788 1114.6648140195857 328.1812662190788L1114.6648140195857 328.1812662190788L1114.6648140195857 316.1235385567233Q1117.8538269341466 316.1235385567233 1120.786787716882 317.0546372179091Q1123.7197484996168 317.9624584125652 1125.9776627529923 319.2194416051659Q1128.2355770063677 320.4764247977667 1129.2365080671425 321.6635755907785L1129.2365080671425 321.6635755907785L1129.2365080671425 316.1235385567233L1141.8063399931502 316.1235385567233L1141.8063399931502 413.00435425310087Q1141.8063399931502 415.84420516971744 1140.2234722691342 419.94103927893474Q1138.6406045451185 424.06115085468167 1135.2886493648498 428.08815256431006Q1131.936694184581 432.0918768074088 1126.978593813767 434.86189532443643Q1122.0437709094826 437.63191384146404 1115.1769182832377 437.63191384146404L1115.1769182832377 437.63191384146404ZM1107.2858571296883 394.05649649797084L1107.2858571296883 406.1142241603263Q1100.256062237736 406.1142241603263 1095.1350196012145 403.43731550941726Q1090.0372544312222 400.76040685850825 1086.7551316505428 396.8265150149984Q1083.4962863363926 392.89262317148865 1081.8901411458469 388.77251159574166Q1080.3072734218313 384.67567748652436 1080.3072734218313 381.81254910337816L1080.3072734218313 381.81254910337816L1080.3072734218313 340.0993290822564Q1080.3072734218313 337.0732584334027 1081.9832510119654 333.0462567237744Q1083.6592286021 329.019255014146 1086.9180739162503 325.0853631706362Q1090.2001966969297 321.1514713271264 1095.228129467333 318.6375049419248Q1100.256062237736 316.1235385567233 1107.2858571296883 316.1235385567233L1107.2858571296883 316.1235385567233L1107.2858571296883 328.1812662190788Q1102.9329708886448 328.1812662190788 1099.5810157083765 330.4624579389839Q1096.2290605281078 332.7203721923593 1094.4599730718546 335.5602231089759Q1092.7141630821316 338.4233514921221 1092.7141630821316 340.588155879379L1092.7141630821316 340.588155879379L1092.7141630821316 381.64960683767066Q1092.7141630821316 384.0006309571647 1094.4599730718546 386.84048187378124Q1096.2290605281078 389.70361025692745 1099.4879058422575 391.86841464418427Q1102.7700286229374 394.05649649797084 1107.2858571296883 394.05649649797084L1107.2858571296883 394.05649649797084ZM1181.0288710956002 394.38238102938584L1181.0288710956002 406.46338615827096Q1172.648983144928 406.46338615827096 1166.6201193137504 403.36748310982836Q1160.5912554825727 400.24830259485606 1157.3091327018928 395.40658955669016Q1154.050287387743 390.54159905199464 1154.050287387743 385.67660854729905L1154.050287387743 385.67660854729905L1154.050287387743 377.62260512804227Q1154.050287387743 375.10863874284075 1154.562391651395 372.3618976923428Q1155.0512184485174 369.59187917531517 1156.8901383043594 366.72875079216897Q1158.752335626731 363.88889987555245 1162.5931176041222 361.8870377540031L1162.5931176041222 361.8870377540031Q1165.270026255031 360.5369446952837 1170.228126625845 359.1170192369754Q1175.16294953013 357.6970937786672 1180.8659288298927 356.25389085382926Q1186.568908129655 354.833965395521 1191.7597831657658 353.1579878053866Q1196.9506582018762 351.4820102152523 1200.395723248264 349.736200225529Q1203.8175108281212 347.96711276927607 1203.8175108281212 345.9652506477267L1203.8175108281212 345.9652506477267L1203.8175108281212 342.7762377331655Q1203.8175108281212 338.0741894941774 1201.5595965747457 334.8153441800273Q1199.3016823213707 331.5332213993475 1196.0428370072204 329.7874114096242Q1192.7607142265406 328.0183239533713 1189.082874514857 328.0183239533713L1189.082874514857 328.0183239533713L1189.082874514857 316.2864808224308Q1198.4636935263034 316.2864808224308 1204.492557357481 320.4065923981778Q1210.5214211886587 324.5034265073951 1213.454381971394 330.6254002046914Q1216.387342754129 336.7473739019877 1216.387342754129 342.42707573522085L1216.387342754129 342.42707573522085L1216.387342754129 388.7026791961527Q1216.387342754129 389.70361025692745 1217.1554991496073 391.96152451030287Q1217.9003780785556 394.2194387636783 1220.9264487274095 394.2194387636783L1220.9264487274095 394.2194387636783L1220.9264487274095 406.46338615827096Q1215.8985159570066 406.46338615827096 1212.8724453081527 404.78740856813664Q1209.869652125829 403.11143097800226 1207.6815702720423 400.5974645928007L1207.6815702720423 400.5974645928007Q1204.492557357481 403.60025777512476 1199.464624587078 405.0434606999627Q1194.4366918166747 406.46338615827096 1189.2458167805644 406.46338615827096L1189.2458167805644 406.46338615827096L1189.2458167805644 394.38238102938584Q1193.109876224485 394.38238102938584 1196.3687215386353 393.12539783678506Q1199.6275668527855 391.86841464418427 1201.7225388404531 388.86562146186026Q1203.8175108281212 385.83955081300655 1203.8175108281212 380.64867577689597L1203.8175108281212 380.64867577689597L1203.8175108281212 360.8628292266987Q1200.302613382145 362.7250265490702 1195.018628479916 364.21478440696745Q1189.7579210442163 365.7278197313943 1184.0549417444536 366.98480292399506Q1178.3519624446908 368.24178611659585 1173.8361339379398 369.4987693091966Q1169.2970279646597 370.75575250179736 1167.621050374525 372.4317300919317L1167.621050374525 372.4317300919317Q1165.6191882529756 373.94476541635856 1165.6191882529756 377.80882486027946L1165.6191882529756 377.80882486027946L1165.6191882529756 382.65053789844535Q1165.7821305186835 386.84048187378124 1167.7839926402326 389.44755812510135Q1169.8091322283117 392.05463437642146 1173.2309198081693 393.21850770290365Q1176.6759848545566 394.38238102938584 1181.0288710956002 394.38238102938584L1181.0288710956002 394.38238102938584ZM1166.7830615794578 343.265064530288L1166.7830615794578 343.265064530288L1155.2141607142248 338.9121782892446Q1155.2141607142248 332.3712101944147 1159.078220158146 327.2734450244227Q1162.9422796020667 322.1524023879011 1168.8780335671258 319.2194416051659Q1174.8370649987146 316.2864808224308 1181.1918133613076 316.2864808224308L1181.1918133613076 316.2864808224308L1181.1918133613076 328.3674859513159Q1177.351031383916 328.3674859513159 1174.0689086032367 330.11329594103927Q1170.8100632890864 331.8823833972922 1168.808201167537 335.2343385775609Q1166.7830615794578 338.5862937578296 1166.7830615794578 343.265064530288Z " fill="#161b21" transform="matrix(0.7166689451388989,0,0,0.7166689451388988,0,39.62919144297179)"/></g></svg>